<svg width="20" height="12" viewBox="0 0 20 12" fill="none" xmlns="http://www.w3.org/2000/svg">
<path fill-rule="evenodd" clip-rule="evenodd" d="M9.99998 2C7.77205 2 5.59687 2.9496 3.9367 4.7223L2.74012 5.99998L3.9367 7.27766C5.60258 9.05647 7.67481 10 9.99998 10C12.3252 10 14.3974 9.05646 16.0633 7.27767L17.2599 5.99998L16.0633 4.7223C14.4031 2.9496 12.2279 2 9.99998 2ZM20 5.99998L17.5231 8.64479C15.5084 10.7961 12.9198 12 9.99998 12C7.08018 12 4.49163 10.7961 2.47691 8.64479L0 5.99998L2.47691 3.35518C4.4944 1.20094 7.18913 0 9.99998 0C12.8108 0 15.5056 1.20094 17.5231 3.35518L20 5.99998Z" fill="white"/>
<path d="M10.0001 2.84607C9.68466 2.84607 9.36928 2.9512 9.0539 2.9512C9.57954 3.16146 10.0001 3.79223 10.0001 4.423C10.0001 5.26403 9.26415 5.99993 8.42312 5.99993C7.79235 5.99993 7.26671 5.57942 6.95133 5.05378C6.8462 5.36916 6.84619 5.68454 6.84619 5.99993C6.84619 7.78712 8.21286 9.15379 10.0001 9.15379C11.7872 9.15379 13.1539 7.78712 13.1539 5.99993C13.1539 4.21274 11.7872 2.84607 10.0001 2.84607Z" fill="white"/>
</svg>
