<svg width="142" height="42" viewBox="0 0 142 42" fill="none" xmlns="http://www.w3.org/2000/svg">
<g opacity="0.4">
<path d="M7.47583 21.0791C7.47583 26.5606 12.0263 30.988 17.6603 30.988H26.1654L31.1764 19.2871H31.1493L31.2306 19.1553H18.7709L16.6852 22.7657L25.6237 22.7921L23.4839 27.7465H17.7687C13.9766 27.7465 10.9158 24.7686 10.9158 21.0791C10.9158 17.3897 13.9766 14.4117 17.7687 14.4117H29.2262L28.7116 15.624L32.7474 15.6767L34.6706 11.1703H17.6603C12.0263 11.1703 7.47583 15.624 7.47583 21.0791Z" fill="white"/>
<path d="M16.9019 4.55566C7.58419 4.55566 0 11.9346 0 21.0001C0 30.0656 7.58419 37.4446 16.9019 37.4446H23.2401L24.6757 34.0186H16.9019C9.50732 33.9923 3.52123 28.1682 3.52123 21.0001C3.52123 13.832 9.50732 7.98159 16.9019 7.98159H35.5644L37 4.55566H16.9019Z" fill="white"/>
</g>
<path opacity="0.4" d="M60.56 31H57.272L56.552 29.92C55.448 30.864 54.248 31.336 52.952 31.336C51.752 31.336 50.704 30.96 49.808 30.208C48.928 29.44 48.488 28.368 48.488 26.992C48.488 25.344 49.328 23.68 51.008 22C49.936 20.288 49.4 18.912 49.4 17.872C49.4 16.816 49.728 15.888 50.384 15.088C51.056 14.272 52.024 13.864 53.288 13.864C54.584 13.864 55.552 14.248 56.192 15.016C56.848 15.768 57.176 16.688 57.176 17.776C57.176 18.672 56.96 19.488 56.528 20.224C56.096 20.96 55.496 21.712 54.728 22.48L56.576 25.12C56.768 24.688 56.904 24.296 56.984 23.944H59.936C59.616 25.352 59.096 26.624 58.376 27.76C59.736 29.792 60.464 30.872 60.56 31ZM53.288 16.624C53 16.624 52.752 16.736 52.544 16.96C52.352 17.168 52.256 17.504 52.256 17.968C52.256 18.496 52.528 19.184 53.072 20.032C53.872 19.184 54.272 18.456 54.272 17.848C54.272 17.528 54.192 17.248 54.032 17.008C53.872 16.752 53.624 16.624 53.288 16.624ZM53.096 28.336C53.672 28.336 54.272 28.064 54.896 27.52C53.488 25.552 52.76 24.536 52.712 24.472C51.992 25.272 51.632 26.04 51.632 26.776C51.632 27.272 51.768 27.656 52.04 27.928C52.312 28.2 52.664 28.336 53.096 28.336Z" fill="white"/>
<path opacity="0.4" d="M78.312 20.288C81.6 20.288 83.472 18.392 83.568 14.864V10.64H78.192V13.664H80.208V14.864C80.208 16.376 79.608 17 78.36 17C77.16 17 76.56 16.376 76.56 14.864V8.336C76.56 6.824 77.184 6.2 78.336 6.2C79.512 6.2 79.992 6.824 80.064 8.336H83.472C83.352 4.808 81.576 2.912 78.336 2.912C74.976 2.912 73.008 4.808 73.008 8.336V14.864C73.008 18.392 74.976 20.288 78.312 20.288ZM99.6384 3.2H89.5584V6.44H92.8464V20H96.3504V6.44H99.6384V3.2ZM112.098 20H115.626L111.594 3.2H107.946L103.914 20H107.442L107.994 17.216H111.546L112.098 20ZM108.666 13.976L109.05 12.056C109.29 10.856 109.554 8.816 109.722 7.448H109.818C109.986 8.816 110.274 10.856 110.49 12.056L110.874 13.976H108.666ZM134.162 20H137.762L141.746 3.2H138.218L136.706 11.144C136.466 12.368 136.178 14.432 136.01 15.824H135.914C135.746 14.432 135.458 12.368 135.218 11.144L133.706 3.2H130.178L134.162 20ZM87.408 24.2L86.088 32.144C85.896 33.368 85.56 35.432 85.392 36.824H85.296C85.128 35.432 84.792 33.368 84.6 32.144L83.28 24.44H79.728L78.408 32.144C78.216 33.368 77.88 35.432 77.712 36.824H77.616C77.448 35.432 77.112 33.368 76.92 32.144L75.6 24.2H72.072L75.864 41H79.464L80.664 35.384C81.072 33.56 81.36 31.256 81.456 29.888H81.552C81.648 31.256 81.936 33.56 82.344 35.384L83.544 41H87.144L90.936 24.2H87.408ZM97.2958 24.2V41H100.704V24.2H97.2958ZM115.815 41H119.655L114.663 31.544L118.935 24.2H115.047L112.695 28.76L111.831 30.632V24.2H108.471V41H111.831V36.152L112.767 34.64L115.815 41ZM125.74 24.2V41H129.148V24.2H125.74Z" fill="white"/>
</svg>
