<svg width="142" height="42" viewBox="0 0 142 42" fill="none" xmlns="http://www.w3.org/2000/svg">
<g opacity="0.4">
<path d="M7.47583 21.079C7.47583 26.5605 12.0263 30.9879 17.6603 30.9879H26.1654L31.1764 19.287H31.1493L31.2306 19.1552H18.7709L16.6852 22.7656L25.6237 22.792L23.4839 27.7464H17.7687C13.9766 27.7464 10.9158 24.7685 10.9158 21.079C10.9158 17.3896 13.9766 14.4116 17.7687 14.4116H29.2262L28.7116 15.6239L32.7474 15.6766L34.6706 11.1702H17.6603C12.0263 11.1702 7.47583 15.6239 7.47583 21.079Z" fill="white"/>
<path d="M16.9019 4.55554C7.58419 4.55554 0 11.9345 0 21C0 30.0655 7.58419 37.4444 16.9019 37.4444H23.2401L24.6757 34.0185H16.9019C9.50732 33.9922 3.52123 28.1681 3.52123 21C3.52123 13.8319 9.50732 7.98147 16.9019 7.98147H35.5644L37 4.55554H16.9019Z" fill="white"/>
</g>
<path opacity="0.4" d="M60.56 31H57.272L56.552 29.92C55.448 30.864 54.248 31.336 52.952 31.336C51.752 31.336 50.704 30.96 49.808 30.208C48.928 29.44 48.488 28.368 48.488 26.992C48.488 25.344 49.328 23.68 51.008 22C49.936 20.288 49.4 18.912 49.4 17.872C49.4 16.816 49.728 15.888 50.384 15.088C51.056 14.272 52.024 13.864 53.288 13.864C54.584 13.864 55.552 14.248 56.192 15.016C56.848 15.768 57.176 16.688 57.176 17.776C57.176 18.672 56.96 19.488 56.528 20.224C56.096 20.96 55.496 21.712 54.728 22.48L56.576 25.12C56.768 24.688 56.904 24.296 56.984 23.944H59.936C59.616 25.352 59.096 26.624 58.376 27.76C59.736 29.792 60.464 30.872 60.56 31ZM53.288 16.624C53 16.624 52.752 16.736 52.544 16.96C52.352 17.168 52.256 17.504 52.256 17.968C52.256 18.496 52.528 19.184 53.072 20.032C53.872 19.184 54.272 18.456 54.272 17.848C54.272 17.528 54.192 17.248 54.032 17.008C53.872 16.752 53.624 16.624 53.288 16.624ZM53.096 28.336C53.672 28.336 54.272 28.064 54.896 27.52C53.488 25.552 52.76 24.536 52.712 24.472C51.992 25.272 51.632 26.04 51.632 26.776C51.632 27.272 51.768 27.656 52.04 27.928C52.312 28.2 52.664 28.336 53.096 28.336Z" fill="white"/>
<path d="M78.312 20.288C76.632 20.288 75.328 19.824 74.4 18.896C73.472 17.952 73.008 16.608 73.008 14.864V8.336C73.008 6.592 73.472 5.256 74.4 4.328C75.328 3.384 76.64 2.912 78.336 2.912C79.952 2.912 81.192 3.376 82.056 4.304C82.936 5.232 83.408 6.576 83.472 8.336H80.064C80.032 7.568 79.88 7.024 79.608 6.704C79.352 6.368 78.928 6.2 78.336 6.2C77.152 6.2 76.56 6.912 76.56 8.336V14.864C76.56 16.288 77.16 17 78.36 17C78.984 17 79.448 16.832 79.752 16.496C80.056 16.16 80.208 15.616 80.208 14.864V13.664H78.192V10.64H83.568V14.864C83.52 16.624 83.04 17.968 82.128 18.896C81.232 19.824 79.96 20.288 78.312 20.288ZM99.6384 3.2V6.44H96.3504V20H92.8464V6.44H89.5584V3.2H99.6384ZM112.098 20L111.546 17.216H107.994L107.442 20H103.914L107.946 3.2H111.594L115.626 20H112.098ZM108.666 13.976H110.874L110.49 12.056C110.266 10.824 110.042 9.288 109.818 7.448H109.722C109.45 9.608 109.226 11.144 109.05 12.056L108.666 13.976ZM134.162 20L130.178 3.2H133.706L135.218 11.144C135.442 12.296 135.674 13.856 135.914 15.824H136.01C136.25 13.856 136.482 12.296 136.706 11.144L138.218 3.2H141.746L137.762 20H134.162ZM87.408 24.2H90.936L87.144 41H83.544L82.344 35.384C81.944 33.624 81.68 31.792 81.552 29.888H81.456C81.328 31.792 81.064 33.624 80.664 35.384L79.464 41H75.864L72.072 24.2H75.6L76.92 32.144C77.304 34.56 77.536 36.12 77.616 36.824H77.712C77.792 36.12 78.024 34.56 78.408 32.144L79.728 24.44H83.28L84.6 32.144C84.984 34.56 85.216 36.12 85.296 36.824H85.392C85.472 36.12 85.704 34.56 86.088 32.144L87.408 24.2ZM97.2958 24.2H100.704V41H97.2958V24.2ZM115.815 41L112.767 34.64L111.831 36.152V41H108.471V24.2H111.831V30.632L112.695 28.76L115.047 24.2H118.935L114.663 31.544L119.655 41H115.815ZM125.74 24.2H129.148V41H125.74V24.2Z" fill="url(#paint0_linear_13_204)"/>
<defs>
<linearGradient id="paint0_linear_13_204" x1="72" y1="21" x2="142" y2="21" gradientUnits="userSpaceOnUse">
<stop stop-color="#ACD685"/>
<stop offset="1" stop-color="#56851F"/>
</linearGradient>
</defs>
</svg>
