<svg width="20" height="20" viewBox="0 0 20 20" fill="none" xmlns="http://www.w3.org/2000/svg">
<g opacity="0.34">
<path fill-rule="evenodd" clip-rule="evenodd" d="M11.6 3C8.61768 3 6.20002 5.41766 6.20002 8.4C6.20002 9.9112 6.81947 11.2759 7.82085 12.2572C8.79583 13.2126 10.1283 13.8 11.6 13.8C14.5824 13.8 17 11.3823 17 8.4C17 5.41766 14.5824 3 11.6 3ZM4.20002 8.4C4.20002 4.31309 7.51311 1 11.6 1C15.6869 1 19 4.31309 19 8.4C19 12.4869 15.6869 15.8 11.6 15.8C9.93825 15.8 8.40326 15.2513 7.16819 14.3266L2.70066 18.7135L1.29938 17.2865L5.74292 12.9231C4.77623 11.6728 4.20002 10.1031 4.20002 8.4Z" fill="white"/>
</g>
</svg>
